# xmcd
#
# Track frame offsets: 
#        150
#        17150
#        30335
#        44780
#        54745
#        65280
#        78897
#        94487
#        108642
#        120770
#        136272
#        150195
#        158582
#        175630
#        185125
#        199562
#        213232
#        229492
#        238117
#        252987
#        259612
#        272767
#        283757
#        297615
#
# Disc length: 4094 seconds
#
# Revision: 1
# Processed by: cddbd v1.5.2PL0 Copyright (c) Steve Scherf et al.
# Submitted via: ExactAudioCopy v0.99pb3
#
DISCID=560ffc18
DTITLE=Keely Smith - Politely! and Swingin' Pretty
DYEAR=2000
DGENRE=Vocal/Instrumental 
TTITLE0=Sweet and Lovely
TTITLE1=Cocktails for Two
TTITLE2=The Song Is You
TTITLE3=I'll Get By ( As Long as I Have You)
TTITLE4=Lullaby of the Leaves
TTITLE5=On the Sunny Side of the Street
TTITLE6=I Can't Get Started
TTITLE7=I'll Never Smile Again
TTITLE8=S'Posin'
TTITLE9=East of the Sun (And West of the Moon)
TTITLE10=All the Way
TTITLE11=I Never Knew
TTITLE12=It's Magic
TTITLE13=It's Been a Long, Long Time
TTITLE14=Stormy Weather
TTITLE15=Indian Love Call
TTITLE16=The Nearness of You
TTITLE17=What Is this Thing Called Love?
TTITLE18=The Man I Love
TTITLE19=You're Driving Me Crazy
TTITLE20=Stardust
TTITLE21=There Will Never Be Another You
TTITLE22=Someone to Watch Over Me
TTITLE23=What Can I Say After I Say I'm Sorry?
EXTD=COLLECTORS CHOICE MUSIC
EXTT0=
EXTT1=
EXTT2=
EXTT3=
EXTT4=
EXTT5=
EXTT6=
EXTT7=
EXTT8=
EXTT9=
EXTT10=
EXTT11=
EXTT12=
EXTT13=
EXTT14=
EXTT15=
EXTT16=
EXTT17=
EXTT18=
EXTT19=
EXTT20=
EXTT21=
EXTT22=
EXTT23=
PLAYORDER=
